<svg width="42" height="45" viewBox="0 0 42 45" fill="none" xmlns="http://www.w3.org/2000/svg">
<path d="M27.8895 21.9429H14.0895C13.6609 21.9429 13.2324 21.7715 12.8895 21.4286C12.5467 21.0858 12.4609 20.6572 12.4609 20.2286L13.0609 5.31434C13.0609 4.4572 13.8324 3.77148 14.6895 3.77148H27.3752C28.2324 3.77148 29.0038 4.4572 29.0038 5.31434L29.6038 20.2286C29.6038 20.6572 29.4324 21.0858 29.1752 21.4286C28.7466 21.7715 28.3181 21.9429 27.8895 21.9429ZM14.6038 5.40006L14.0038 20.4001L14.0895 20.4858H27.8895C27.8895 20.4858 27.8895 20.4858 27.9752 20.4858L27.3752 5.40006C27.3752 5.40006 27.3752 5.31434 27.2895 5.31434H14.6038V5.40006Z" fill="#022FA7"/>
<path d="M24.2896 7.8C23.861 7.8 23.5182 7.45714 23.5182 7.02857V4.11429C23.5182 2.74286 22.4039 1.62857 21.0325 1.62857C19.661 1.62857 18.5468 2.74286 18.5468 4.11429V7.11429C18.5468 7.54286 18.2039 7.88571 17.7753 7.88571C17.3468 7.88571 17.0039 7.54286 17.0039 7.11429V4.11429C17.0039 1.88571 18.8039 0 21.1182 0C23.4325 0 25.2325 1.8 25.2325 4.11429V7.11429C25.061 7.45714 24.7182 7.8 24.2896 7.8Z" fill="#022FA7"/>
<path d="M16.3172 44.9999H2.51724C2.08867 44.9999 1.6601 44.8285 1.31724 44.4856C1.0601 44.2285 0.888672 43.7999 0.888672 43.2856L1.48867 28.3713C1.48867 27.5142 2.2601 26.8285 3.11724 26.8285H15.803C16.6601 26.8285 17.4315 27.5142 17.4315 28.3713L18.0315 43.2856C18.0315 43.7142 17.8601 44.1428 17.603 44.4856C17.1744 44.8285 16.7458 44.9999 16.3172 44.9999ZM3.03153 28.3713L2.43153 43.3713L2.51724 43.4571H16.3172C16.3172 43.4571 16.3172 43.4571 16.403 43.4571L15.8887 28.4571C15.8887 28.4571 15.8887 28.3713 15.803 28.3713H3.03153Z" fill="#022FA7"/>
<path d="M12.722 30.8574C12.2934 30.8574 11.9506 30.5145 11.9506 30.086V27.086C11.9506 25.7145 10.8363 24.6003 9.46487 24.6003C8.00773 24.6003 6.89344 25.7145 6.89344 27.086V30.086C6.89344 30.5145 6.55059 30.8574 6.12201 30.8574C5.69344 30.8574 5.35059 30.5145 5.35059 30.086V27.086C5.35059 24.8574 7.15059 22.9717 9.46487 22.9717C11.7792 22.9717 13.5792 24.7717 13.5792 27.086V30.086C13.4934 30.5145 13.1506 30.8574 12.722 30.8574Z" fill="#022FA7"/>
<path d="M39.9745 44.9999H26.1745C25.7459 44.9999 25.3173 44.8285 24.9745 44.4856C24.6316 44.1428 24.5459 43.7142 24.5459 43.2856L25.1459 28.3713C25.1459 27.5142 25.9173 26.8285 26.7745 26.8285H39.4602C40.3173 26.8285 41.0888 27.5142 41.0888 28.3713L41.6888 43.2856C41.6888 43.7142 41.5173 44.1428 41.2602 44.4856C40.8316 44.8285 40.403 44.9999 39.9745 44.9999ZM26.7745 28.3713C26.6888 28.3713 26.6888 28.4571 26.7745 28.3713L26.1745 43.3713L26.2602 43.4571H40.0602C40.0602 43.4571 40.0602 43.4571 40.1459 43.4571L39.4602 28.4571C39.4602 28.4571 39.4602 28.3713 39.3745 28.3713H26.7745Z" fill="#022FA7"/>
<path d="M36.3756 30.8573C35.947 30.8573 35.6041 30.5144 35.6041 30.0858V27.0858C35.6041 25.7144 34.4898 24.6001 33.1184 24.6001C31.747 24.6001 30.6327 25.7144 30.6327 27.0858V30.0858C30.6327 30.5144 30.2898 30.8573 29.8613 30.8573C29.4327 30.8573 29.0898 30.5144 29.0898 30.0858V27.0858C29.0898 24.8573 30.8898 22.9716 33.2041 22.9716C35.5184 22.9716 37.3184 24.7716 37.3184 27.0858V30.0858C37.147 30.5144 36.8041 30.8573 36.3756 30.8573Z" fill="#022FA7"/>
</svg>
