<svg width="45" height="48" viewBox="0 0 45 48" fill="none" xmlns="http://www.w3.org/2000/svg">
<path d="M4.19583 16.1171C2.90539 16.1171 1.87305 15.0848 1.87305 13.7943C1.87305 12.5039 2.90539 11.4716 4.19583 11.4716C5.48626 11.4716 6.51861 12.5039 6.51861 13.7943C6.51861 15.0848 5.48626 16.1171 4.19583 16.1171ZM4.19583 12.9341C3.72267 12.9341 3.37855 13.3212 3.37855 13.7513C3.37855 14.2245 3.76568 14.5686 4.19583 14.5686C4.62597 14.5686 5.01311 14.1815 5.01311 13.7513C5.01311 13.3212 4.62597 12.9341 4.19583 12.9341Z" fill="#022FA7"/>
<path d="M41.2281 37.3235C39.9376 37.3235 38.9053 36.2912 38.9053 35.0008C38.9053 33.7103 39.9376 32.678 41.2281 32.678C42.5185 32.678 43.5508 33.7103 43.5508 35.0008C43.5508 36.2912 42.5185 37.3235 41.2281 37.3235ZM41.2281 34.1835C40.7549 34.1835 40.4108 34.5706 40.4108 35.0008C40.4108 35.4739 40.7979 35.818 41.2281 35.818C41.7012 35.818 42.0453 35.4309 42.0453 35.0008C42.0883 34.5276 41.7012 34.1835 41.2281 34.1835Z" fill="#022FA7"/>
<path d="M22.7349 5.62156C21.4445 5.62156 20.4121 4.58922 20.4121 3.29878C20.4121 2.00835 21.4445 0.932983 22.7349 0.932983C24.0253 0.932983 25.0577 1.96533 25.0577 3.25577C25.0577 4.5462 24.0253 5.62156 22.7349 5.62156ZM22.7349 2.43849C22.2617 2.43849 21.9176 2.82562 21.9176 3.25577C21.9176 3.68591 22.3047 4.07304 22.7349 4.07304C23.2081 4.07304 23.5522 3.68591 23.5522 3.25577C23.5522 2.82562 23.165 2.43849 22.7349 2.43849Z" fill="#022FA7"/>
<path d="M22.7349 47.8188C21.4445 47.8188 20.4121 46.7864 20.4121 45.496C20.4121 44.2056 21.4445 43.1732 22.7349 43.1732C24.0253 43.1732 25.0577 44.2056 25.0577 45.496C25.0577 46.7864 24.0253 47.8188 22.7349 47.8188ZM22.7349 44.6787C22.2617 44.6787 21.9176 45.0659 21.9176 45.496C21.9176 45.9692 22.3047 46.3133 22.7349 46.3133C23.2081 46.3133 23.5522 45.9261 23.5522 45.496C23.5522 45.0228 23.165 44.6787 22.7349 44.6787Z" fill="#022FA7"/>
<path d="M41.2281 16.116C39.9376 16.116 38.9053 15.0837 38.9053 13.7932C38.9053 12.5028 39.9376 11.4705 41.2281 11.4705C42.5185 11.4705 43.5508 12.5028 43.5508 13.7932C43.5508 15.0837 42.5185 16.116 41.2281 16.116ZM41.2281 12.933C40.7549 12.933 40.4108 13.3201 40.4108 13.7502C40.4108 14.2234 40.7979 14.5675 41.2281 14.5675C41.7012 14.5675 42.0453 14.1804 42.0453 13.7502C42.0883 13.3201 41.7012 12.933 41.2281 12.933Z" fill="#022FA7"/>
<path d="M4.19583 37.3226C2.90539 37.3226 1.87305 36.2902 1.87305 34.9998C1.87305 33.7093 2.90539 32.677 4.19583 32.677C5.48626 32.677 6.51861 33.7093 6.51861 34.9998C6.51861 36.2902 5.48626 37.3226 4.19583 37.3226ZM4.19583 34.1825C3.72267 34.1825 3.37855 34.5696 3.37855 34.9998C3.37855 35.4729 3.76568 35.8171 4.19583 35.8171C4.62597 35.8171 5.01311 35.4299 5.01311 34.9998C5.01311 34.5266 4.62597 34.1825 4.19583 34.1825Z" fill="#022FA7"/>
<path d="M22.7356 39.2578C18.3051 39.2578 14.0896 37.2791 11.2507 33.838C11.1647 33.7519 11.0786 33.6659 11.0356 33.5799V33.5369C8.9279 30.827 7.85254 27.6869 7.85254 24.3748C7.85254 16.202 14.5198 9.53479 22.7356 9.53479C30.9513 9.53479 37.6186 16.202 37.6186 24.4178C37.6186 27.7299 36.5432 30.87 34.5215 33.4939V33.5369C34.4785 33.6229 34.3925 33.7519 34.3064 33.795C31.3385 37.2791 27.166 39.2578 22.7356 39.2578ZM22.7356 31.8593C21.4881 31.8593 20.2407 31.9023 19.0793 31.9884H18.8212L18.9073 32.2464C19.8536 35.7736 21.2731 37.7953 22.7786 37.7953C24.2841 37.7953 25.7036 35.7736 26.6499 32.2464L26.7359 31.9884H26.4778C25.1874 31.9023 23.983 31.8593 22.7356 31.8593ZM17.1007 32.1604C15.251 32.3755 13.7025 32.6766 12.8852 33.0637L12.5841 33.1497L12.7992 33.3648C14.4768 35.2144 16.6275 36.5479 19.0363 37.2361L19.5955 37.4082L19.2514 36.935C18.4771 35.7736 17.7889 34.1821 17.3157 32.3325L17.2727 32.1604H17.1007ZM28.1124 32.3325C27.6392 34.2251 26.951 35.7736 26.1767 36.978L25.8326 37.4512L26.3918 37.2791C28.8006 36.5909 30.9513 35.2575 32.6289 33.4078L32.844 33.1928L32.5429 33.0637C31.7256 32.7196 30.1771 32.3755 28.3274 32.1604H28.1554L28.1124 32.3325ZM29.0157 25.3211C28.9727 27.1277 28.8006 28.8483 28.4995 30.4828L28.4565 30.6979L28.6716 30.7409C29.4028 30.827 30.048 30.913 30.6502 31.042C31.9407 31.3001 32.887 31.6012 33.5322 31.9453L33.7042 32.0314L33.8333 31.8593C35.1237 29.9237 35.898 27.6869 36.07 25.3641V25.149H29.0157V25.3211ZM9.35805 25.3211C9.5301 27.6439 10.3044 29.9237 11.5948 31.8163L11.7238 31.9884L11.8959 31.9023C12.5411 31.5582 13.4874 31.2571 14.7779 30.999C15.3371 30.87 16.0253 30.7839 16.7565 30.6979L16.9716 30.6549L16.9286 30.4398C16.6275 28.8483 16.4554 27.0847 16.4124 25.2781V25.063H9.31503L9.35805 25.3211ZM22.7356 30.3968C24.112 30.3968 25.4885 30.4398 26.8219 30.5259H26.994L27.037 30.3538C27.3381 28.7193 27.5532 26.9987 27.5962 25.3211V25.106H17.8749V25.3211C17.9179 26.9987 18.133 28.7623 18.4341 30.3538L18.4771 30.5259H18.6492C19.9396 30.4398 21.3161 30.3968 22.7356 30.3968ZM33.6182 16.9333C32.973 17.3204 32.0267 17.6215 30.6502 17.8796C30.091 17.9656 29.4458 18.0947 28.7146 18.1807L28.4995 18.2237L28.5425 18.4388C28.8006 19.9873 28.9727 21.7079 29.0157 23.4715V23.6866H36.07V23.4715C35.898 21.1917 35.1667 18.955 33.8763 17.0623L33.7903 16.8473L33.6182 16.9333ZM18.3911 18.5248C18.09 20.1164 17.9179 21.7939 17.8749 23.4285V23.6435H27.5962V23.4285C27.5532 21.7939 27.3811 20.1164 27.08 18.5248L27.037 18.3528H26.8649C25.5315 18.4388 24.155 18.4818 22.7786 18.4818C21.3591 18.4818 19.9826 18.4388 18.6922 18.3528H18.5201L18.3911 18.5248ZM11.5088 17.0193C10.2614 18.912 9.48709 21.1487 9.31503 23.4285V23.6435H16.3694V23.4285C16.4124 21.6649 16.5845 19.9873 16.8426 18.3958L16.8856 18.1807L16.6705 18.1377C15.9393 18.0517 15.294 17.9656 14.7349 17.8366C13.3584 17.5785 12.4121 17.2774 11.7669 16.8903L11.6378 16.8473L11.5088 17.0193ZM22.7356 10.9543C21.187 10.9543 19.7676 13.019 18.8212 16.6322L18.7352 16.8903H18.9933C20.1977 16.9763 21.4451 17.0193 22.6925 17.0193C23.983 17.0193 25.2304 16.9763 26.3918 16.8903H26.6499L26.5638 16.6322C25.6605 13.062 24.2411 10.9543 22.7356 10.9543ZM26.1767 11.8146C26.994 13.019 27.6822 14.6535 28.1554 16.5892L28.1984 16.7612L28.3704 16.7182C30.2631 16.5031 31.8546 16.159 32.6719 15.7719L32.93 15.6428L32.7579 15.4278C31.0804 13.5351 28.8866 12.1587 26.4348 11.4274L25.8756 11.2554L26.1767 11.8146ZM19.0363 11.5135C16.5845 12.2017 14.3907 13.5782 12.7132 15.5138L12.5411 15.7289L12.7992 15.8579C13.5735 16.202 15.165 16.5462 17.1007 16.8042L17.2727 16.8473L17.3157 16.6752C17.7889 14.7395 18.4771 13.105 19.2944 11.9006L19.6385 11.4274L19.0363 11.5135Z" fill="#022FA7"/>
<path d="M17.4022 3.68469C13.5309 4.67403 10.0897 6.73872 7.42285 9.49165" stroke="#022FA7" stroke-width="1.59154" stroke-miterlimit="10" stroke-linecap="round"/>
<path d="M38.0536 9.49165C35.3437 6.69571 31.9026 4.67403 28.0312 3.68469" stroke="#022FA7" stroke-width="1.59154" stroke-miterlimit="10" stroke-linecap="round"/>
<path d="M43.3428 30.0527C43.8589 28.2461 44.117 26.3535 44.117 24.3748C44.117 22.3961 43.8589 20.5035 43.3428 18.6969" stroke="#022FA7" stroke-width="1.59154" stroke-miterlimit="10" stroke-linecap="round"/>
<path d="M28.0312 45.1076C31.9026 44.1183 35.3437 42.0536 38.0106 39.3007" stroke="#022FA7" stroke-width="1.59154" stroke-miterlimit="10" stroke-linecap="round"/>
<path d="M7.38086 39.2576C10.0908 42.0105 13.5319 44.0752 17.3602 45.0645" stroke="#022FA7" stroke-width="1.59154" stroke-miterlimit="10" stroke-linecap="round"/>
<path d="M2.09164 18.6969C1.57547 20.5035 1.31738 22.3961 1.31738 24.3748C1.31738 26.3535 1.57547 28.2461 2.09164 30.0527" stroke="#022FA7" stroke-width="1.59154" stroke-miterlimit="10" stroke-linecap="round"/>
</svg>
