<svg width="40" height="20" viewBox="0 0 40 20" fill="none" xmlns="http://www.w3.org/2000/svg">
<path d="M18.3958 19.4383H15.8408C15.6423 18.5453 15.3695 17.6771 15.0718 16.9081L13.7819 13.7082H5.12465L3.83475 16.9081C3.46266 17.8507 3.23941 18.5701 3.06576 19.4383H0.485954C0.982072 18.6197 1.15571 18.2476 1.82547 16.5856L7.38199 2.89281C7.8533 1.72693 8.05174 1.1564 8.17577 0.585861H10.6812C10.7804 1.05717 10.9044 1.37965 11.5246 2.89281L17.0811 16.5856C17.7012 18.074 18.0237 18.7934 18.3958 19.4383ZM13.1866 11.9966L9.9866 3.81062C9.91219 3.61218 9.91219 3.58737 9.44087 2.22305C9.31684 2.59514 9.21762 2.868 9.16801 3.04164C9.01917 3.43854 8.94476 3.7114 8.89514 3.81062L5.71999 11.9966H13.1866ZM22.9849 19.4383H20.6531C20.802 18.5453 20.8516 17.8259 20.8516 16.6601V3.33931C20.8516 2.32227 20.802 1.55329 20.6531 0.511443C21.5461 0.561055 22.2407 0.585861 23.3818 0.585861H28.4422C32.2623 0.585861 34.4204 2.54552 34.4204 5.99354C34.4204 9.64 32.1879 11.7485 28.3181 11.7485H22.7864V16.6353C22.7864 17.8259 22.836 18.5949 22.9849 19.4383ZM22.7864 10.0369H28.3181C30.9476 10.0369 32.4359 8.62296 32.4359 6.09276C32.4359 3.61218 30.9972 2.29747 28.3181 2.29747H22.7864V10.0369ZM37.0773 0.585861H39.4339C39.285 1.40445 39.2106 2.32227 39.2106 3.36412V16.6601C39.2106 17.7515 39.285 18.5949 39.4339 19.4383H37.0773C37.2262 18.5205 37.2758 17.9004 37.2758 16.6601V3.36412C37.2758 2.12382 37.2262 1.47887 37.0773 0.585861Z" fill="#022FA7"/>
</svg>
