<svg width="53" height="22" viewBox="0 0 53 22" fill="none" xmlns="http://www.w3.org/2000/svg">
<path d="M37.9131 21.1352L41.091 17.9573C41.3127 17.7356 41.3127 17.3661 41.091 17.1443L37.9131 13.9664" stroke="#022FA7" stroke-width="1.34818" stroke-miterlimit="10" stroke-linecap="round" stroke-linejoin="round"/>
<path d="M11.7529 4.80261H22.0996C22.0996 4.80261 26.5339 13.5234 27.8642 15.6667C28.5294 16.7013 29.3423 17.5143 30.4509 17.5143H40.5759" stroke="#022FA7" stroke-width="1.20037" stroke-miterlimit="10" stroke-linecap="round" stroke-linejoin="round"/>
<path d="M37.9131 0.663818L41.4605 4.21126C41.7562 4.50688 41.7562 4.95031 41.4605 5.24593L37.987 8.71947" stroke="#022FA7" stroke-width="1.34818" stroke-miterlimit="10" stroke-linecap="round" stroke-linejoin="round"/>
<path d="M41.241 4.72949H11.7529" stroke="#022FA7" stroke-width="1.20347" stroke-miterlimit="10" stroke-linecap="round" stroke-linejoin="round"/>
<path d="M44.417 1.99388C44.417 1.62436 44.7126 1.32874 45.0821 1.32874H52.1031C52.4726 1.32874 52.7683 1.62436 52.7683 1.99388C52.7683 2.36341 52.4726 2.65903 52.1031 2.65903H45.0821C44.7126 2.65903 44.417 2.36341 44.417 1.99388Z" fill="#022FA7"/>
<path d="M44.417 4.80186C44.417 4.43234 44.7126 4.13672 45.0821 4.13672H52.1031C52.4726 4.13672 52.7683 4.43234 52.7683 4.80186C52.7683 5.17139 52.4726 5.46701 52.1031 5.46701H45.0821C44.7126 5.46701 44.417 5.17139 44.417 4.80186Z" fill="#022FA7"/>
<path d="M44.417 7.61107C44.417 7.24154 44.7126 6.94592 45.0821 6.94592H52.1031C52.4726 6.94592 52.7683 7.24154 52.7683 7.61107C52.7683 7.98059 52.4726 8.27621 52.1031 8.27621H45.0821C44.7126 8.27621 44.417 7.98059 44.417 7.61107Z" fill="#022FA7"/>
<path d="M0.884766 1.99461C0.884766 1.62509 1.18039 1.32947 1.54991 1.32947H8.57089C8.94041 1.32947 9.23604 1.62509 9.23604 1.99461C9.23604 2.36414 8.94041 2.65976 8.57089 2.65976H1.54991C1.18039 2.65976 0.884766 2.36414 0.884766 1.99461Z" fill="#022FA7"/>
<path d="M0.884766 4.80284C0.884766 4.43332 1.18039 4.1377 1.54991 4.1377H8.57089C8.94041 4.1377 9.23604 4.43332 9.23604 4.80284C9.23604 5.17237 8.94041 5.46799 8.57089 5.46799H1.54991C1.18039 5.46799 0.884766 5.17237 0.884766 4.80284Z" fill="#022FA7"/>
<path d="M0.884766 7.61107C0.884766 7.24154 1.18039 6.94592 1.54991 6.94592H8.57089C8.94041 6.94592 9.23604 7.24154 9.23604 7.61107C9.23604 7.98059 8.94041 8.27621 8.57089 8.27621H1.54991C1.18039 8.27621 0.884766 7.98059 0.884766 7.61107Z" fill="#022FA7"/>
<path d="M44.417 14.706C44.417 14.3365 44.7126 14.0409 45.0821 14.0409H52.1031C52.4726 14.0409 52.7683 14.3365 52.7683 14.706C52.7683 15.0756 52.4726 15.3712 52.1031 15.3712H45.0821C44.7126 15.3712 44.417 15.0756 44.417 14.706Z" fill="#022FA7"/>
<path d="M44.417 17.514C44.417 17.1445 44.7126 16.8489 45.0821 16.8489H52.1031C52.4726 16.8489 52.7683 17.1445 52.7683 17.514C52.7683 17.8835 52.4726 18.1792 52.1031 18.1792H45.0821C44.7126 18.1792 44.417 17.8835 44.417 17.514Z" fill="#022FA7"/>
<path d="M44.417 20.3235C44.417 19.9539 44.7126 19.6583 45.0821 19.6583H52.1031C52.4726 19.6583 52.7683 19.9539 52.7683 20.3235C52.7683 20.693 52.4726 20.9886 52.1031 20.9886H45.0821C44.7126 20.9886 44.417 20.693 44.417 20.3235Z" fill="#022FA7"/>
</svg>
